<svg xmlns="http://www.w3.org/2000/svg" style="position:absolute; width: 0; height: 0;"><symbol viewBox="0 0 240 240" id="icon-chart-bar"><path d="M41.2 218.2h17.6v-26.1l-.1-51.9h16.1v-10l-16 .3v-27H41.2v27l.1 50.6-16.1-.3v11.3h16v26.1zM182.9 186.5h17.5v-27.2h16.7v-10.8l-16.8.1V53.5h-17.6v27h-16v8.8h16v78.9zM166.7 100l16 7M111.2 139.3h17.6v-26l-.1-51.9 16.1-.1v-10l-16 .4v-27h-17.6v27l.1 50.6-16.1-.3v11.3h16v26z"></path></symbol><symbol viewBox="0 0 240 240" id="icon-chart-candlestick"><path d="M46.2 217.3h17.5v-26.1h16.1v-61.6H63.7v-27H46.2v27H30.1v61.6h16.1zM115.3 128.9h17.5V103h16.1V41.4h-16.1v-27h-17.5v27H99.2V103h16.1zM186.1 203h17.5v-35h16.1V85.5h-16.1V49.3h-17.5v36.2H170V168h16.1z"></path></symbol><symbol viewBox="0 0 240 240" id="icon-chart-line"><path d="M118.4 182L231.8 73.3l-10.4-12.5-101.7 97.1-47.9-54.3-63.6 65.2 11.7 14.1 53.6-54z"></path></symbol><symbol viewBox="0 0 24 24" id="icon-view-grid"><path d="M0 0h11v11H0zM13 0h11v11H13zM0 13h11v11H0zM13 13h11v11H13z"></path></symbol><symbol viewBox="0 0 24 24" id="icon-view-module"><path d="M0 0h7v7H0zM17 0h7v7h-7zM8.5 0h7v7h-7zM0 17h7v7H0zM17 17h7v7h-7zM8.5 17h7v7h-7zM0 8.5h7v7H0zM17 8.5h7v7h-7zM8.5 8.5h7v7h-7z"></path></symbol><symbol viewBox="0 0 24 24" id="icon-view-split"><style><![CDATA[.st0{fill:#fff}]]></style><path d="M14 4h10v16H14zM0 4h10v16H0z"></path><path class="st0" d="M2 6h8v12H2z"></path><path d="M10 0h2v24h-2z"></path></symbol><symbol viewBox="0 0 24 24" id="icon-view-stream"><path d="M0 0h24v11H0zM0 13h24v11H0z"></path></symbol></svg>